<svg width="128" height="128" viewBox="0 0 128 128" fill="none" xmlns="http://www.w3.org/2000/svg">
<path d="M108.522 54.2608C108.522 47.3815 106.482 40.6566 102.66 34.9367C98.8378 29.2167 93.4055 24.7585 87.0499 22.1259C80.6942 19.4933 73.7005 18.8045 66.9534 20.1466C60.2062 21.4887 54.0085 24.8014 49.1441 29.6658C44.2797 34.5302 40.967 40.7279 39.6249 47.4751C38.2828 54.2222 38.9716 61.2159 41.6042 67.5716C44.2368 73.9272 48.695 79.3595 54.4149 83.1815C60.1349 87.0035 66.8598 89.0434 73.7391 89.0434C82.9611 89.0337 91.8025 85.366 98.3234 78.8451C104.844 72.3242 108.512 63.4828 108.522 54.2608ZM76.4147 67.3712C78.0863 67.0266 79.676 66.3635 81.097 65.418L92.5485 76.8662C87.9727 80.6879 82.3392 83.0215 76.4013 83.5551L76.4147 67.3712ZM73.7391 62.2876C72.1516 62.2876 70.5997 61.8168 69.2797 60.9348C67.9597 60.0528 66.9309 58.7992 66.3234 57.3325C65.7158 55.8658 65.5569 54.2519 65.8666 52.6949C66.1763 51.1379 66.9408 49.7076 68.0634 48.5851C69.1859 47.4625 70.6161 46.698 72.1732 46.3883C73.7302 46.0786 75.3441 46.2375 76.8108 46.8451C78.2775 47.4526 79.5311 48.4814 80.4131 49.8014C81.2951 51.1214 81.7659 52.6733 81.7659 54.2608C81.7659 56.3897 80.9202 58.4313 79.4149 59.9366C77.9096 61.4419 75.868 62.2876 73.7391 62.2876ZM44.3077 54.2608C44.3044 49.5327 45.4404 44.8734 47.6193 40.6773C49.7983 36.4811 52.9561 32.8717 56.8255 30.1546C60.6949 27.4374 65.1619 25.6925 69.8486 25.0675C74.5352 24.4425 79.3034 24.9558 83.7497 26.564C88.1959 28.1722 92.1892 30.8279 95.3917 34.3063C98.5941 37.7848 100.911 41.9836 102.147 46.5473C103.383 51.1111 103.501 55.9054 102.492 60.5245C101.482 65.1436 99.3749 69.4515 96.3478 73.0836L84.8963 61.6187C86.4716 59.2268 87.2377 56.3925 87.0819 53.5327C86.9261 50.6729 85.8566 47.9386 84.0308 45.732C82.205 43.5254 79.7192 41.963 76.9391 41.2747C74.159 40.5863 71.2314 40.8083 68.5869 41.9081C65.9424 43.0078 63.7207 44.9272 62.2485 47.3839C60.7763 49.8406 60.1315 52.7049 60.4087 55.5555C60.686 58.4061 61.8707 61.0924 63.7887 63.2194C65.7067 65.3464 68.2567 66.8017 71.0635 67.3712V83.5685C63.7549 82.8929 56.9615 79.5142 52.0128 74.0936C47.0641 68.6729 44.3165 61.6006 44.3077 54.2608Z" fill="#00ADB5"/>
<path d="M8.39979 126.559L39.1726 95.7799C49.8828 104.701 63.62 109.149 77.5265 108.2C91.433 107.25 104.438 100.976 113.836 90.6823C123.235 80.3884 128.303 66.8675 127.986 52.9322C127.669 38.9969 121.992 25.7202 112.136 15.8639C102.28 6.00766 89.0031 0.330699 75.0678 0.0139972C61.1325 -0.302705 47.6116 4.76524 37.3177 14.1636C27.0239 23.5619 20.7496 36.567 19.8001 50.4735C18.8507 64.38 23.2991 78.1172 32.2201 88.8274L1.44118 119.6C0.98427 120.057 0.621836 120.6 0.374558 121.197C0.127281 121.794 2.00009e-06 122.433 2.00009e-06 123.08C2.00009e-06 123.726 0.127281 124.366 0.374558 124.963C0.621836 125.559 0.98427 126.102 1.44118 126.559C1.89809 127.016 2.44052 127.378 3.0375 127.625C3.63448 127.873 4.27432 128 4.92049 128C5.56665 128 6.20649 127.873 6.80347 127.625C7.40045 127.378 7.94288 127.016 8.39979 126.559ZM73.7689 9.97136C82.5227 9.97136 91.0798 12.5672 98.3583 17.4305C105.637 22.2938 111.31 29.2062 114.66 37.2936C118.009 45.381 118.886 54.2802 117.178 62.8657C115.47 71.4513 111.255 79.3376 105.065 85.5274C98.8754 91.7172 90.9891 95.9326 82.4036 97.6404C73.818 99.3481 64.9189 98.4716 56.8315 95.1217C48.7441 91.7718 41.8316 86.0989 36.9683 78.8205C32.105 71.542 29.5092 62.9848 29.5092 54.2311C29.5222 42.4967 34.1895 31.2466 42.487 22.9491C50.7844 14.6516 62.0345 9.98438 73.7689 9.97136Z" fill="#00ADB5"/>
</svg>
