<svg width="16" height="16" viewBox="0 0 16 16" fill="none" xmlns="http://www.w3.org/2000/svg">
<path d="M13.5652 6.78258C13.5652 5.92266 13.3102 5.08205 12.8324 4.36706C12.3547 3.65206 11.6757 3.09479 10.8812 2.76571C10.0867 2.43664 9.21254 2.35054 8.36914 2.5183C7.52575 2.68606 6.75104 3.10015 6.14298 3.7082C5.53493 4.31626 5.12084 5.09097 4.95308 5.93436C4.78531 6.77776 4.87142 7.65196 5.20049 8.44642C5.52957 9.24088 6.08684 9.91992 6.80184 10.3977C7.51683 10.8754 8.35744 11.1304 9.21736 11.1304C10.3701 11.1292 11.4753 10.6707 12.2904 9.85561C13.1055 9.0405 13.564 7.93532 13.5652 6.78258ZM9.55181 8.42138C9.76076 8.3783 9.95947 8.29541 10.1371 8.17723L11.5685 9.60825C10.9966 10.086 10.2924 10.3777 9.55014 10.4444L9.55181 8.42138ZM9.21736 7.78593C9.01892 7.78593 8.82493 7.72708 8.65993 7.61683C8.49493 7.50658 8.36633 7.34988 8.29039 7.16654C8.21445 6.98321 8.19458 6.78147 8.23329 6.58684C8.27201 6.39221 8.36757 6.21343 8.50789 6.07311C8.64821 5.93279 8.82699 5.83723 9.02162 5.79852C9.21625 5.7598 9.41799 5.77967 9.60132 5.85561C9.78466 5.93155 9.94136 6.06015 10.0516 6.22515C10.1619 6.39015 10.2207 6.58414 10.2207 6.78258C10.2207 7.04868 10.115 7.30389 9.92683 7.49205C9.73867 7.68022 9.48346 7.78593 9.21736 7.78593ZM5.53843 6.78258C5.53802 6.19156 5.68001 5.60915 5.95238 5.08464C6.22475 4.56012 6.61948 4.10895 7.10315 3.7693C7.58683 3.42966 8.14521 3.21154 8.73104 3.13341C9.31687 3.05529 9.9129 3.11945 10.4687 3.32047C11.0245 3.5215 11.5236 3.85346 11.9239 4.28827C12.3242 4.72308 12.6139 5.24793 12.7684 5.81839C12.9229 6.38886 12.9376 6.98815 12.8115 7.56554C12.6853 8.14293 12.4218 8.68142 12.0434 9.13542L10.612 7.70231C10.8089 7.40333 10.9047 7.04904 10.8852 6.69156C10.8657 6.33409 10.732 5.9923 10.5038 5.71648C10.2756 5.44065 9.96487 5.24535 9.61736 5.15931C9.26985 5.07326 8.9039 5.10102 8.57333 5.23848C8.24277 5.37595 7.96506 5.61588 7.78103 5.92296C7.59701 6.23005 7.5164 6.58809 7.55106 6.94442C7.58571 7.30074 7.73381 7.63653 7.97356 7.9024C8.21331 8.16828 8.53206 8.35019 8.88291 8.42138V10.446C7.96933 10.3616 7.12015 9.93925 6.50157 9.26167C5.88299 8.58409 5.53953 7.70005 5.53843 6.78258Z" fill="#00ADB5"/>
<path d="M1.04997 15.8199L4.89657 11.9725C6.23535 13.0876 7.9525 13.6437 9.69081 13.525C11.4291 13.4063 13.0548 12.622 14.2296 11.3353C15.4043 10.0486 16.0378 8.35844 15.9983 6.61653C15.9587 4.87462 15.249 3.21503 14.017 1.98299C12.785 0.750958 11.1254 0.0413374 9.38347 0.00174965C7.64156 -0.0378381 5.95145 0.595655 4.66471 1.77045C3.37798 2.94524 2.5937 4.57088 2.47502 6.30919C2.35633 8.0475 2.91239 9.76465 4.02751 11.1034L0.180146 14.95C0.123032 15.0071 0.0777279 15.0749 0.0468182 15.1496C0.0159086 15.2242 -1.30139e-06 15.3042 -1.30139e-06 15.3849C-1.30139e-06 15.4657 0.0159086 15.5457 0.0468182 15.6203C0.0777279 15.6949 0.123032 15.7627 0.180146 15.8199C0.237259 15.877 0.305063 15.9223 0.379686 15.9532C0.454308 15.9841 0.534288 16 0.615059 16C0.69583 16 0.77581 15.9841 0.850433 15.9532C0.925055 15.9223 0.992859 15.877 1.04997 15.8199ZM9.22112 1.24642C10.3153 1.24642 11.385 1.57089 12.2948 2.17881C13.2046 2.78672 13.9137 3.65078 14.3324 4.6617C14.7512 5.67263 14.8607 6.78502 14.6473 7.85821C14.4338 8.93141 13.9069 9.9172 13.1332 10.6909C12.3594 11.4647 11.3736 11.9916 10.3004 12.205C9.22725 12.4185 8.11486 12.309 7.10393 11.8902C6.09301 11.4715 5.22895 10.7624 4.62104 9.85256C4.01312 8.94275 3.68865 7.8731 3.68865 6.77888C3.69028 5.31208 4.27368 3.90582 5.31087 2.86864C6.34805 1.83145 7.75431 1.24805 9.22112 1.24642Z" fill="#00ADB5"/>
</svg>
