<svg width="38" height="38" viewBox="0 0 38 38" fill="none" xmlns="http://www.w3.org/2000/svg">
<path d="M32.2173 16.1087C32.2173 14.0664 31.6117 12.0699 30.477 10.3718C29.3424 8.6737 27.7297 7.35018 25.8428 6.56862C23.956 5.78707 21.8797 5.58258 19.8767 5.98101C17.8736 6.37944 16.0337 7.36291 14.5896 8.80704C13.1454 10.2512 12.162 12.0911 11.7635 14.0942C11.3651 16.0972 11.5696 18.1735 12.3511 20.0603C13.1327 21.9472 14.4562 23.5599 16.1543 24.6945C17.8524 25.8292 19.8489 26.4348 21.8912 26.4348C24.629 26.4319 27.2538 25.343 29.1897 23.4071C31.1255 21.4712 32.2144 18.8464 32.2173 16.1087ZM22.6855 20.0008C23.1818 19.8985 23.6537 19.7017 24.0756 19.421L27.4752 22.8196C26.1168 23.9542 24.4444 24.647 22.6815 24.8054L22.6855 20.0008ZM21.8912 18.4916C21.4199 18.4916 20.9592 18.3519 20.5673 18.09C20.1754 17.8282 19.87 17.456 19.6896 17.0206C19.5093 16.5852 19.4621 16.106 19.554 15.6438C19.646 15.1815 19.8729 14.7569 20.2062 14.4237C20.5395 14.0904 20.9641 13.8635 21.4263 13.7715C21.8886 13.6796 22.3677 13.7268 22.8031 13.9071C23.2385 14.0875 23.6107 14.3929 23.8725 14.7848C24.1344 15.1767 24.2741 15.6374 24.2741 16.1087C24.2741 16.7407 24.0231 17.3468 23.5762 17.7937C23.1293 18.2406 22.5232 18.4916 21.8912 18.4916ZM13.1537 16.1087C13.1528 14.705 13.49 13.3218 14.1369 12.0761C14.7838 10.8303 15.7212 9.7588 16.87 8.95214C18.0187 8.14549 19.3448 7.62746 20.7362 7.44191C22.1275 7.25636 23.5431 7.40875 24.8631 7.88618C26.1831 8.36361 27.3686 9.15202 28.3193 10.1847C29.27 11.2174 29.9579 12.4639 30.3249 13.8187C30.6918 15.1736 30.7269 16.5969 30.4272 17.9682C30.1275 19.3395 29.5018 20.6184 28.6032 21.6967L25.2035 18.293C25.6712 17.583 25.8986 16.7415 25.8523 15.8925C25.8061 15.0435 25.4886 14.2318 24.9465 13.5767C24.4045 12.9216 23.6665 12.4578 22.8412 12.2534C22.0159 12.0491 21.1467 12.115 20.3616 12.4415C19.5766 12.7679 18.917 13.3378 18.4799 14.0671C18.0429 14.7964 17.8514 15.6468 17.9337 16.493C18.016 17.3393 18.3678 18.1368 18.9372 18.7683C19.5066 19.3997 20.2636 19.8317 21.0969 20.0008V24.8094C18.9271 24.6088 16.9103 23.6058 15.4412 21.9965C13.9721 20.3873 13.1564 18.2877 13.1537 16.1087Z" fill="#00ADB5"/>
<path d="M2.49368 37.5722L11.6294 28.4347C14.8089 31.0831 18.8872 32.4037 23.0157 32.1218C27.1442 31.84 31.0051 29.9773 33.7952 26.9213C36.5853 23.8653 38.0899 19.8513 37.9958 15.7143C37.9018 11.5772 36.2165 7.63569 33.2904 4.70961C30.3643 1.78353 26.4228 0.0981764 22.2857 0.00415543C18.1487 -0.0898655 14.1347 1.41468 11.0787 4.20481C8.0227 6.99494 6.16003 10.8558 5.87816 14.9843C5.59629 19.1128 6.91693 23.1911 9.56535 26.3706L0.427845 35.5063C0.2922 35.642 0.184603 35.803 0.111192 35.9802C0.0377817 36.1575 -4.25435e-06 36.3474 -4.25435e-06 36.5392C-4.25435e-06 36.7311 0.0377817 36.921 0.111192 37.0982C0.184603 37.2755 0.2922 37.4365 0.427845 37.5722C0.56349 37.7078 0.724524 37.8154 0.901753 37.8888C1.07898 37.9622 1.26893 38 1.46076 38C1.6526 38 1.84255 37.9622 2.01978 37.8888C2.19701 37.8154 2.35804 37.7078 2.49368 37.5722ZM21.9001 2.96025C24.4989 2.96025 27.0393 3.73087 29.2001 5.17467C31.3609 6.61847 33.0451 8.67059 34.0396 11.0715C35.0341 13.4725 35.2943 16.1144 34.7873 18.6633C34.2803 21.2121 33.0289 23.5533 31.1913 25.391C29.3536 27.2286 27.0124 28.48 24.4636 28.987C21.9147 29.494 19.2728 29.2338 16.8718 28.2393C14.4709 27.2448 12.4188 25.5606 10.975 23.3998C9.53117 21.239 8.76054 18.6986 8.76054 16.0999C8.76441 12.6162 10.15 9.27633 12.6133 6.81302C15.0766 4.3497 18.4165 2.96411 21.9001 2.96025Z" fill="#00ADB5"/>
</svg>
