<svg width="48" height="48" viewBox="0 0 48 48" fill="none" xmlns="http://www.w3.org/2000/svg">
<path d="M40.6956 20.3478C40.6956 17.768 39.9306 15.2462 38.4973 13.1012C37.0641 10.9562 35.027 9.28443 32.6436 8.2972C30.2602 7.30997 27.6376 7.05167 25.1074 7.55495C22.5772 8.05824 20.2531 9.30051 18.429 11.1247C16.6048 12.9488 15.3625 15.273 14.8592 17.8031C14.3559 20.3333 14.6143 22.9559 15.6015 25.3393C16.5887 27.7227 18.2605 29.7598 20.4055 31.1931C22.5505 32.6263 25.0723 33.3913 27.6521 33.3913C31.1103 33.3876 34.4258 32.0122 36.8712 29.5669C39.3165 27.1216 40.6919 23.806 40.6956 20.3478ZM28.6554 25.2642C29.2823 25.135 29.8784 24.8863 30.4113 24.5318L34.7056 28.8248C32.9897 30.2579 30.8771 31.1331 28.6504 31.3332L28.6554 25.2642ZM27.6521 23.3578C27.0568 23.3578 26.4748 23.1813 25.9798 22.8506C25.4848 22.5198 25.099 22.0497 24.8712 21.4997C24.6434 20.9497 24.5837 20.3445 24.6999 19.7606C24.816 19.1767 25.1027 18.6403 25.5237 18.2194C25.9446 17.7984 26.481 17.5118 27.0649 17.3956C27.6487 17.2795 28.254 17.3391 28.804 17.5669C29.354 17.7947 29.8241 18.1805 30.1548 18.6755C30.4856 19.1705 30.6621 19.7525 30.6621 20.3478C30.6621 21.1461 30.345 21.9117 29.7805 22.4762C29.216 23.0407 28.4504 23.3578 27.6521 23.3578ZM16.6153 20.3478C16.6141 18.5748 17.04 16.8275 17.8572 15.254C18.6743 13.6804 19.8584 12.3269 21.3095 11.308C22.7605 10.289 24.4356 9.63468 26.1931 9.4003C27.9506 9.16592 29.7387 9.35841 31.406 9.96148C33.0734 10.5646 34.5709 11.5604 35.7718 12.8649C36.9727 14.1693 37.8417 15.7438 38.3051 17.4552C38.7686 19.1666 38.8129 20.9645 38.4344 22.6967C38.0558 24.4288 37.2655 26.0443 36.1303 27.4063L31.836 23.107C32.4268 22.21 32.7141 21.1472 32.6556 20.0748C32.5972 19.0023 32.1961 17.977 31.5115 17.1495C30.8268 16.322 29.8946 15.7361 28.8521 15.478C27.8095 15.2199 26.7117 15.3031 25.72 15.7155C24.7283 16.1279 23.8952 16.8477 23.3431 17.769C22.791 18.6902 22.5492 19.7643 22.6532 20.8333C22.7571 21.9023 23.2014 22.9097 23.9207 23.7073C24.6399 24.5049 25.5962 25.0506 26.6487 25.2642V31.3382C23.908 31.0848 21.3605 29.8178 19.5047 27.7851C17.649 25.7523 16.6186 23.1002 16.6153 20.3478Z" fill="#00ADB5"/>
<path d="M3.14992 47.4596L14.6897 35.9175C18.706 39.2628 23.8575 40.931 29.0724 40.575C34.2874 40.2189 39.1643 37.8661 42.6887 34.0059C46.213 30.1457 48.1135 25.0753 47.9948 19.8496C47.876 14.6239 45.7471 9.64508 42.051 5.94898C38.3549 2.25287 33.3761 0.124012 28.1504 0.00524896C22.9247 -0.113514 17.8543 1.78696 13.9941 5.31134C10.1339 8.83571 7.78109 13.7126 7.42505 18.9276C7.069 24.1425 8.73718 29.294 12.0825 33.3103L0.540441 44.8501C0.3691 45.0214 0.233187 45.2248 0.140458 45.4487C0.0477289 45.6726 -8.01368e-07 45.9125 -8.01368e-07 46.1548C-8.01368e-07 46.3971 0.0477289 46.6371 0.140458 46.8609C0.233187 47.0848 0.3691 47.2882 0.540441 47.4596C0.711781 47.6309 0.915193 47.7668 1.13906 47.8595C1.36293 47.9523 1.60287 48 1.84518 48C2.08749 48 2.32743 47.9523 2.5513 47.8595C2.77517 47.7668 2.97858 47.6309 3.14992 47.4596ZM27.6633 3.73926C30.946 3.73926 34.1549 4.71268 36.8844 6.53643C39.6138 8.36017 41.7411 10.9523 42.9973 13.9851C44.2536 17.0179 44.5822 20.3551 43.9418 23.5746C43.3014 26.7942 41.7207 29.7516 39.3995 32.0728C37.0783 34.394 34.1209 35.9747 30.9013 36.6151C27.6818 37.2555 24.3446 36.9269 21.3118 35.6706C18.279 34.4144 15.6869 32.2871 13.8631 29.5577C12.0394 26.8282 11.066 23.6193 11.066 20.3367C11.0708 15.9362 12.8211 11.7175 15.9326 8.60592C19.0442 5.49436 23.2629 3.74414 27.6633 3.73926Z" fill="#00ADB5"/>
</svg>
